<?xml version="1.0" encoding="UTF-8" standalone="no"?>
<!-- Generator: Adobe Illustrator 19.0.0, SVG Export Plug-In . SVG Version: 6.00 Build 0)  -->

<svg
   xmlns:dc="http://purl.org/dc/elements/1.1/"
   xmlns:cc="http://creativecommons.org/ns#"
   xmlns:rdf="http://www.w3.org/1999/02/22-rdf-syntax-ns#"
   xmlns:svg="http://www.w3.org/2000/svg"
   xmlns="http://www.w3.org/2000/svg"
   xmlns:sodipodi="http://sodipodi.sourceforge.net/DTD/sodipodi-0.dtd"
   xmlns:inkscape="http://www.inkscape.org/namespaces/inkscape"
   version="1.1"
   id="Capa_1"
   x="0px"
   y="0px"
   viewBox="0 0 59.99 59.99"
   style="enable-background:new 0 0 59.99 59.99;"
   xml:space="preserve"
   sodipodi:docname="scrumsprintuser.svg"
   inkscape:version="0.92.5 (2060ec1f9f, 2020-04-08)"
   inkscape:export-filename="/home/john/WWW/dolibarr/htdocs/custom/scrumproject/img/object_srumsprintuser.png"
   inkscape:export-xdpi="102.41707"
   inkscape:export-ydpi="102.41707"><metadata
   id="metadata49"><rdf:RDF><cc:Work
       rdf:about=""><dc:format>image/svg+xml</dc:format><dc:type
         rdf:resource="http://purl.org/dc/dcmitype/StillImage" /></cc:Work></rdf:RDF></metadata><defs
   id="defs47">
	
	
	
	
	
	
	
	
	
	
	
</defs><sodipodi:namedview
   pagecolor="#505050"
   bordercolor="#ffffff"
   borderopacity="1"
   objecttolerance="10"
   gridtolerance="10"
   guidetolerance="10"
   inkscape:pageopacity="0"
   inkscape:pageshadow="2"
   inkscape:window-width="1920"
   inkscape:window-height="1011"
   id="namedview45"
   showgrid="false"
   inkscape:zoom="3.9339889"
   inkscape:cx="-28.596929"
   inkscape:cy="28.978221"
   inkscape:window-x="1920"
   inkscape:window-y="0"
   inkscape:window-maximized="1"
   inkscape:current-layer="Capa_1" />
<path
   inkscape:connector-curvature="0"
   d="m 30.005,51 c -11.579,0 -21,-9.421 -21,-21 0,-11.579 9.421,-21 21,-21 11.579,0 21,9.421 21,21 0,11.579 -9.421,21 -21,21"
   style="fill:#00384e;fill-opacity:1"
   id="XMLID_148_" /><path
   inkscape:connector-curvature="0"
   d="m 30.005,15 c -0.552,0 -1,-0.447 -1,-1 v -2 c 0,-0.553 0.448,-1 1,-1 0.552,0 1,0.447 1,1 v 2 c 0,0.553 -0.448,1 -1,1"
   style="fill:#ffffff"
   id="XMLID_147_" /><path
   inkscape:connector-curvature="0"
   d="m 30.005,49 c -0.552,0 -1,-0.447 -1,-1 v -2 c 0,-0.553 0.448,-1 1,-1 0.552,0 1,0.447 1,1 v 2 c 0,0.553 -0.448,1 -1,1"
   style="fill:#ffffff"
   id="XMLID_146_" /><path
   inkscape:connector-curvature="0"
   d="m 48.005,31 h -2 c -0.552,0 -1,-0.447 -1,-1 0,-0.553 0.448,-1 1,-1 h 2 c 0.552,0 1,0.447 1,1 0,0.553 -0.448,1 -1,1"
   style="fill:#ffffff"
   id="XMLID_145_" /><path
   inkscape:connector-curvature="0"
   d="m 14.005,31 h -2 c -0.552,0 -1,-0.447 -1,-1 0,-0.553 0.448,-1 1,-1 h 2 c 0.552,0 1,0.447 1,1 0,0.553 -0.448,1 -1,1"
   style="fill:#ffffff"
   id="XMLID_144_" /><path
   inkscape:connector-curvature="0"
   d="m 30.005,33 c -2.206,0 -4,-1.794 -4,-4 0,-2.206 1.794,-4 4,-4 2.206,0 4,1.794 4,4 0,2.206 -1.794,4 -4,4 m 0,-6 c -1.103,0 -2,0.897 -2,2 0,1.103 0.897,2 2,2 1.103,0 2,-0.897 2,-2 0,-1.103 -0.897,-2 -2,-2"
   style="fill:#ffffff"
   id="XMLID_141_" /><path
   inkscape:connector-curvature="0"
   d="m 30.005,27 c -0.552,0 -1,-0.447 -1,-1 v -6 c 0,-0.553 0.448,-1 1,-1 0.552,0 1,0.447 1,1 v 6 c 0,0.553 -0.448,1 -1,1"
   style="fill:#ffffff"
   id="XMLID_140_" /><path
   inkscape:connector-curvature="0"
   d="m 19.005,41 c -0.256,0 -0.512,-0.098 -0.707,-0.293 -0.391,-0.391 -0.391,-1.023 0,-1.414 l 8.879,-8.879 c 0.391,-0.391 1.023,-0.391 1.414,0 0.391,0.391 0.391,1.023 0,1.414 l -8.879,8.879 C 19.517,40.902 19.261,41 19.005,41"
   style="fill:#ffffff"
   id="XMLID_139_" /><path
   inkscape:connector-curvature="0"
   d="m 1.005,31 c -0.552,0 -1,-0.447 -1,-1 0,-16.542 13.458,-30 30,-30 7.733,0 15.081,2.946 20.69,8.295 0.4,0.381 0.415,1.014 0.034,1.414 -0.381,0.4 -1.015,0.414 -1.414,0.033 C 44.08,4.75 37.222,2 30.005,2 c -15.439,0 -28,12.561 -28,28 0,0.553 -0.448,1 -1,1"
   style="fill:#cb4f24;fill-opacity:1"
   id="XMLID_138_" /><path
   inkscape:connector-curvature="0"
   d="m 51.005,10 h -9 c -0.552,0 -1,-0.447 -1,-1 0,-0.553 0.448,-1 1,-1 h 7 V 1 c 0,-0.553 0.448,-1 1,-1 0.552,0 1,0.447 1,1 z"
   style="fill:#cb4f24;fill-opacity:1"
   id="XMLID_137_" /><path
   inkscape:connector-curvature="0"
   d="m 29.425,59.99 c -0.55,-0.011 -0.99,-0.46 -0.98,-1.02 0.01,-0.55 0.47,-0.991 1.02,-0.98 0.55,0.01 0.99,0.47 0.98,1.02 -0.01,0.55 -0.45,0.98 -1,0.98 z m 2.02,-1.011 c -0.05,-0.549 0.36,-1.029 0.91,-1.08 0.55,-0.04 1.04,0.371 1.08,0.92 0.05,0.551 -0.36,1.031 -0.91,1.071 v 0.009 h -0.08 c -0.52,0 -0.96,-0.399 -1,-0.92 m -5.11,0.801 v -0.01 c -0.55,-0.06 -0.94,-0.56 -0.87,-1.11 0.07,-0.551 0.56,-0.94 1.11,-0.87 0.55,0.069 0.94,0.56 0.87,1.109 -0.06,0.511 -0.49,0.881 -0.99,0.881 z m 8.09,-1.1 c -0.1,-0.54 0.26,-1.071 0.8,-1.17 0.54,-0.1 1.07,0.25 1.17,0.8 0.1,0.54 -0.26,1.06 -0.8,1.169 -0.06,0.011 -0.12,0.011 -0.18,0.011 -0.47,0 -0.9,-0.33 -0.99,-0.81 m -11.15,0.56 c -0.53,-0.12 -0.87,-0.66 -0.75,-1.2 0.13,-0.54 0.66,-0.87 1.2,-0.75 0.54,0.12 0.88,0.66 0.75,1.2 -0.1,0.46 -0.52,0.77 -0.97,0.77 -0.08,0 -0.15,0 -0.23,-0.02 m 14.09,-1.171 c -0.16,-0.529 0.14,-1.09 0.67,-1.239 0.53,-0.16 1.09,0.14 1.25,0.66 0.16,0.53 -0.14,1.09 -0.67,1.25 -0.1,0.03 -0.2,0.04 -0.29,0.04 -0.43,0 -0.83,-0.28 -0.96,-0.711 m -17.07,0.321 c -0.52,-0.18 -0.8,-0.75 -0.62,-1.27 0.18,-0.53 0.75,-0.801 1.27,-0.62 0.52,0.17 0.8,0.74 0.62,1.27 -0.14,0.41 -0.53,0.669 -0.94,0.669 -0.11,0 -0.22,-0.019 -0.33,-0.049 m 19.93,-1.23 c -0.21,-0.511 0.03,-1.1 0.54,-1.31 0.51,-0.21 1.09,0.03 1.31,0.54 0.21,0.509 -0.03,1.089 -0.54,1.31 -0.13,0.05 -0.26,0.07 -0.39,0.07 -0.39,0 -0.76,-0.23 -0.92,-0.61 m -22.81,0.069 c -0.5,-0.229 -0.71,-0.83 -0.48,-1.33 0.23,-0.5 0.82,-0.719 1.33,-0.479 0.5,0.229 0.71,0.82 0.48,1.32 -0.17,0.369 -0.53,0.579 -0.91,0.579 -0.14,0 -0.28,-0.029 -0.42,-0.09 m 25.56,-1.279 c -0.27,-0.48 -0.09,-1.091 0.4,-1.35 0.48,-0.27 1.09,-0.09 1.35,0.4 0.27,0.479 0.09,1.09 -0.4,1.35 -0.15,0.089 -0.31,0.129 -0.47,0.129 -0.36,0 -0.7,-0.189 -0.88,-0.529 m -28.3,-0.17 c -0.47,-0.28 -0.63,-0.9 -0.34,-1.37 0.28,-0.48 0.89,-0.63 1.37,-0.35 0.47,0.29 0.63,0.9 0.34,1.37 -0.19,0.32 -0.52,0.49 -0.86,0.49 -0.17,0 -0.35,-0.04 -0.51,-0.14 m 30.91,-1.31 c -0.32,-0.45 -0.2,-1.08 0.25,-1.39 0.46,-0.31 1.08,-0.2 1.39,0.26 0.32,0.45 0.2,1.08 -0.25,1.389 -0.18,0.121 -0.37,0.17 -0.57,0.17 -0.32,0 -0.63,-0.149 -0.82,-0.429 m -33.48,-0.41 v 0 c -0.45,-0.331 -0.54,-0.96 -0.21,-1.4 0.33,-0.45 0.96,-0.54 1.4,-0.21 0.44,0.33 0.53,0.96 0.21,1.4 -0.2,0.27 -0.5,0.4 -0.81,0.4 -0.21,0 -0.42,-0.061 -0.59,-0.19 m 35.92,-1.331 c -0.36,-0.419 -0.31,-1.049 0.11,-1.41 0.42,-0.359 1.05,-0.31 1.41,0.111 0.36,0.42 0.31,1.049 -0.11,1.41 -0.19,0.16 -0.42,0.24 -0.65,0.24 -0.28,0 -0.56,-0.12 -0.76,-0.351 M 9.715,52.08 v 0 c -0.41,-0.38 -0.44,-1.011 -0.06,-1.42 0.37,-0.4 1.01,-0.431 1.41,-0.06 v 0.009 c 0.41,0.37 0.43,1 0.06,1.411 -0.2,0.209 -0.47,0.32 -0.74,0.32 -0.24,0 -0.48,-0.09 -0.67,-0.26 m 40.56,-1.34 c -0.4,-0.381 -0.42,-1.011 -0.03,-1.41 0.38,-0.4 1.01,-0.41 1.41,-0.03 0.4,0.38 0.41,1.01 0.03,1.41 -0.19,0.21 -0.46,0.31 -0.72,0.31 -0.25,0 -0.5,-0.09 -0.69,-0.28 M 7.545,49.859 c -0.37,-0.409 -0.33,-1.04 0.08,-1.409 0.42,-0.36 1.05,-0.33 1.41,0.09 0.37,0.41 0.33,1.04 -0.08,1.41 -0.19,0.17 -0.43,0.25 -0.66,0.25 -0.28,0 -0.56,-0.11 -0.75,-0.341 m 44.76,-1.319 c -0.43,-0.34 -0.51,-0.971 -0.17,-1.4 0.34,-0.44 0.96,-0.52 1.4,-0.18 0.44,0.34 0.52,0.97 0.18,1.399 -0.2,0.261 -0.5,0.391 -0.79,0.391 -0.22,0 -0.43,-0.07 -0.62,-0.21 m -46.7,-1.101 c -0.32,-0.449 -0.22,-1.069 0.23,-1.399 0.45,-0.32 1.08,-0.21 1.4,0.23 0.32,0.45 0.22,1.08 -0.23,1.4 -0.18,0.13 -0.38,0.189 -0.58,0.189 -0.32,0 -0.62,-0.149 -0.82,-0.42 m 48.5,-1.299 c -0.47,-0.29 -0.61,-0.911 -0.32,-1.38 0.29,-0.46 0.91,-0.611 1.38,-0.321 0.47,0.29 0.61,0.911 0.32,1.38 -0.19,0.311 -0.52,0.471 -0.85,0.471 -0.18,0 -0.36,-0.05 -0.53,-0.15 M 3.935,44.83 c -0.28,-0.48 -0.11,-1.09 0.37,-1.36 0.48,-0.281 1.09,-0.111 1.36,0.37 h 0.01 c 0.27,0.479 0.1,1.09 -0.38,1.36 -0.15,0.09 -0.33,0.13 -0.49,0.13 -0.35,0 -0.69,-0.181 -0.87,-0.5 m 51.71,-1.261 c -0.49,-0.239 -0.7,-0.84 -0.46,-1.34 0.24,-0.5 0.85,-0.699 1.34,-0.459 0.5,0.24 0.7,0.839 0.46,1.339 -0.17,0.351 -0.53,0.561 -0.9,0.561 -0.15,0 -0.3,-0.03 -0.44,-0.101 M 2.535,42.06 c -0.22,-0.51 0.01,-1.1 0.51,-1.32 0.51,-0.22 1.1,0.01 1.32,0.51 0.22,0.51 -0.01,1.1 -0.51,1.319 -0.13,0.061 -0.27,0.091 -0.4,0.091 -0.39,0 -0.75,-0.23 -0.92,-0.6 m 54.38,-1.21 c -0.52,-0.19 -0.78,-0.76 -0.59,-1.281 0.18,-0.52 0.76,-0.789 1.28,-0.599 0.52,0.19 0.78,0.759 0.59,1.28 -0.14,0.41 -0.53,0.66 -0.94,0.66 -0.11,0 -0.23,-0.02 -0.34,-0.06 M 1.435,39.16 c -0.17,-0.53 0.12,-1.091 0.65,-1.261 0.52,-0.17 1.09,0.121 1.25,0.651 0.17,0.52 -0.12,1.09 -0.64,1.26 -0.1,0.03 -0.21,0.04 -0.31,0.04 -0.42,0 -0.81,-0.27 -0.95,-0.69 m 56.46,-1.14 c -0.53,-0.14 -0.86,-0.68 -0.73,-1.22 0.14,-0.53 0.68,-0.861 1.22,-0.73 0.53,0.141 0.86,0.681 0.72,1.221 -0.11,0.45 -0.52,0.76 -0.97,0.76 -0.08,-0.001 -0.16,-0.011 -0.24,-0.031 M 0.645,36.16 c -0.12,-0.54 0.23,-1.07 0.77,-1.181 0.54,-0.12 1.07,0.231 1.18,0.771 0.12,0.54 -0.23,1.069 -0.77,1.18 -0.07,0.02 -0.14,0.02 -0.21,0.02 -0.46,0 -0.88,-0.32 -0.97,-0.79 m 57.93,-1.07 c -0.55,-0.08 -0.93,-0.58 -0.85,-1.13 0.08,-0.54 0.59,-0.93 1.13,-0.851 0.55,0.08 0.93,0.591 0.85,1.131 -0.07,0.5 -0.5,0.86 -0.99,0.86 -0.04,0 -0.09,0 -0.14,-0.01 m -58.41,-2 c -0.06,-0.54 0.34,-1.04 0.89,-1.09 0.55,-0.061 1.04,0.34 1.1,0.89 0.06,0.549 -0.34,1.04 -0.89,1.1 h -0.11 c -0.5,0 -0.94,-0.381 -0.99,-0.9 m 58.78,-0.97 c -0.55,-0.02 -0.98,-0.49 -0.96,-1.04 0.02,-0.55 0.49,-0.98 1.04,-0.96 0.55,0.02 0.98,0.48 0.96,1.04 -0.02,0.529 -0.46,0.96 -1,0.96 z M 0.005,30 c 0,-0.55 0.45,-1 1,-1 0.55,0 1,0.45 1,1 0,0.55 -0.45,1 -1,1 -0.55,0 -1,-0.45 -1,-1"
   style="fill:#cb4f24;fill-opacity:1"
   id="XMLID_105_" />
<g
   id="g14">
</g>
<g
   id="g16">
</g>
<g
   id="g18">
</g>
<g
   id="g20">
</g>
<g
   id="g22">
</g>
<g
   id="g24">
</g>
<g
   id="g26">
</g>
<g
   id="g28">
</g>
<g
   id="g30">
</g>
<g
   id="g32">
</g>
<g
   id="g34">
</g>
<g
   id="g36">
</g>
<g
   id="g38">
</g>
<g
   id="g40">
</g>
<g
   id="g42">
</g>
</svg>