<svg xmlns="http://www.w3.org/2000/svg" width="256" height="256" fill="#00384e" xmlns:v="https://vecta.io/nano"><path d="M192.498 124.8c9.278 0 16.8 7.522 16.8 16.8s-7.522 16.8-16.8 16.8-16.8-7.522-16.8-16.8 7.522-16.8 16.8-16.8zm-20.7 41.8c9.278 0 16.8 7.522 16.8 16.8s-7.522 16.8-16.8 16.8-16.8-7.522-16.8-16.8 7.522-16.8 16.8-16.8zm-26.8 36.7h-18.9-18.9c-11.5 0-18.7 9.5-18.7 21.4V254h12.9v-25.9c0-1.2 1-2 2-2 1.2 0 2 .8 2 2v25.8h41.5v-25.8c0-1.2 1-2 2-2 1.2 0 2 1 2 2v25.8h12.9v-29.1c.2-12-7.1-21.5-18.8-21.5zm4.7-78.5c9.278 0 16.8 7.522 16.8 16.8s-7.522 16.8-16.8 16.8-16.8-7.522-16.8-16.8 7.522-16.8 16.8-16.8zm49.4 58.6c0 9.3 7.5 16.8 16.8 16.8s16.8-7.5 16.8-16.8-7.5-16.8-16.8-16.8-16.8 7.5-16.8 16.8zm-1.7 19.9c-11.5 0-18.7 9.5-18.7 21.4V254h12.9v-25.9c0-1.2 1-2 2-2 1.2 0 2 .8 2 2v25.8h41.5v-25.8c0-1.2 1-2 2-2 1.2 0 2 1 2 2v25.8h12.9v-29.1c.2-12.1-7.1-21.6-18.7-21.6h-18.9-19v.1zm-157.6-36.7c9.278 0 16.8 7.522 16.8 16.8s-7.522 16.8-16.8 16.8-16.8-7.522-16.8-16.8 7.522-16.8 16.8-16.8zm-25 87.3v-25.8c0-1.2 1-2 2-2 1.2 0 2 .8 2 2v25.8h41.5v-25.8c0-1.2 1-2 2-2 1.2 0 2 1 2 2v25.8h12.9v-29.1c.2-12.1-7.1-21.6-18.7-21.6h-18.9-18.9c-11.5 0-18.7 9.5-18.7 21.4v29.3zm94.5-70.5c0 9.3 7.5 16.8 16.8 16.8s16.8-7.5 16.8-16.8-7.5-16.8-16.8-16.8-16.8 7.5-16.8 16.8zm-48-58.6c9.278 0 16.8 7.522 16.8 16.8s-7.522 16.8-16.8 16.8-16.8-7.522-16.8-16.8 7.522-16.8 16.8-16.8zm45.4 0c9.278 0 16.8 7.522 16.8 16.8s-7.522 16.8-16.8 16.8-16.8-7.522-16.8-16.8 7.522-16.8 16.8-16.8zm-22.6 41.8c9.278 0 16.8 7.522 16.8 16.8s-7.522 16.8-16.8 16.8-16.8-7.522-16.8-16.8 7.522-16.8 16.8-16.8zm27.964-81.725h31.875v6.342h-31.875v-6.342zM132.781 104h-9.563c-3.521 0-6.375-2.854-6.375-6.375v-1.594h22.313v1.594c0 3.521-2.854 6.375-6.375 6.375z"/><path d="M127.167 1.109c-18.278.43-32.955 15.735-32.657 34.015.141 8.642 3.557 16.488 9.062 22.35 5.355 5.703 8.465 13.15 8.465 20.974v.713h13.547V51.302h-6.375v-4.781h17.531v4.781h-6.375V79.16h13.547v-.714c0-7.81 3.086-15.257 8.439-20.944 5.638-5.99 9.092-14.058 9.092-22.933 0-18.754-15.423-33.904-34.276-33.46z" fill="#cb4f24"/></svg>