<?xml version="1.0" encoding="UTF-8" standalone="no"?>
<!-- Generator: Adobe Illustrator 19.0.0, SVG Export Plug-In . SVG Version: 6.00 Build 0)  -->

<svg
   xmlns:dc="http://purl.org/dc/elements/1.1/"
   xmlns:cc="http://creativecommons.org/ns#"
   xmlns:rdf="http://www.w3.org/1999/02/22-rdf-syntax-ns#"
   xmlns:svg="http://www.w3.org/2000/svg"
   xmlns="http://www.w3.org/2000/svg"
   xmlns:sodipodi="http://sodipodi.sourceforge.net/DTD/sodipodi-0.dtd"
   xmlns:inkscape="http://www.inkscape.org/namespaces/inkscape"
   version="1.1"
   id="Layer_1"
   x="0px"
   y="0px"
   viewBox="0 0 512.149 512.149"
   style="enable-background:new 0 0 512.149 512.149;"
   xml:space="preserve"
   sodipodi:docname="sprint.svg"
   inkscape:version="0.92.5 (2060ec1f9f, 2020-04-08)"
   inkscape:export-filename="/home/john/WWW/dolibarr/htdocs/custom/scrumproject/img/object_scrumsprint.png"
   inkscape:export-xdpi="11.99651"
   inkscape:export-ydpi="11.99651"><metadata
   id="metadata47"><rdf:RDF><cc:Work
       rdf:about=""><dc:format>image/svg+xml</dc:format><dc:type
         rdf:resource="http://purl.org/dc/dcmitype/StillImage" /></cc:Work></rdf:RDF></metadata><defs
   id="defs45" /><sodipodi:namedview
   pagecolor="#505050"
   bordercolor="#ffffff"
   borderopacity="1"
   objecttolerance="10"
   gridtolerance="10"
   guidetolerance="10"
   inkscape:pageopacity="0"
   inkscape:pageshadow="2"
   inkscape:window-width="1920"
   inkscape:window-height="1011"
   id="namedview43"
   showgrid="false"
   inkscape:zoom="0.46080341"
   inkscape:cx="253.90437"
   inkscape:cy="256.07449"
   inkscape:window-x="1920"
   inkscape:window-y="0"
   inkscape:window-maximized="1"
   inkscape:current-layer="g10" />
<g
   transform="translate(-1)"
   id="g10">
	<g
   id="g8"
   style="fill:#00384e;fill-opacity:1">
		<g
   id="g6"
   style="fill:#00384e;fill-opacity:1">
			<path
   d="M504.427,111.44l-1.253-1.254c-11.776-11.776-30.967-11.802-42.814,0.035l-46.089,46.574     c-2.428,2.436-6.312,2.534-8.845,0.203l-64.618-59.657c-6.276-5.8-14.442-8.987-22.996-8.987h-96.124     c-2.269,0-4.44,0.865-6.082,2.419l-81.47,77.356c-11.935,11.944-12.756,31.197-1.818,42.92     c5.844,6.268,13.736,9.719,22.219,9.719h0.15c8.413-0.044,16.499-3.619,22.087-9.728l57.538-60.893h20.595L120.63,300.218H37.81     c-19.633,0-35.778,14.68-36.758,33.421c-0.521,9.79,2.904,19.094,9.64,26.191c6.638,7,15.969,11.008,25.618,11.008h123.586     c2.436,0,4.767-1.006,6.444-2.798l63.32-67.593l53.248,55.684l-16.075,102.735c-4.052,17.02,4.114,34.357,19.412,41.198     c4.714,2.119,9.719,3.178,14.698,3.178c5.358,0,10.69-1.227,15.598-3.655c9.481-4.696,16.296-13.285,18.776-23.967     l27.463-147.306c0.53-2.86-0.38-5.809-2.445-7.865l-73.295-73.198l58.227-58.138l40.589,40.58     c11.335,11.335,31.091,11.335,42.417,0l76.156-76.147c5.623-5.623,8.722-13.109,8.722-21.054     C513.149,124.54,510.05,117.063,504.427,111.44z"
   id="path2"
   style="fill:#00384e;fill-opacity:1" />
			<path
   d="M407.065,114.837c29.211,0,52.966-23.755,52.966-52.966c0-29.211-23.755-52.966-52.966-52.966     c-29.21,0-52.966,23.755-52.966,52.966C354.1,91.082,377.855,114.837,407.065,114.837z"
   id="path4"
   style="fill:#00384e;fill-opacity:1" />
		</g>
	</g>
</g>
<g
   id="g12">
</g>
<g
   id="g14">
</g>
<g
   id="g16">
</g>
<g
   id="g18">
</g>
<g
   id="g20">
</g>
<g
   id="g22">
</g>
<g
   id="g24">
</g>
<g
   id="g26">
</g>
<g
   id="g28">
</g>
<g
   id="g30">
</g>
<g
   id="g32">
</g>
<g
   id="g34">
</g>
<g
   id="g36">
</g>
<g
   id="g38">
</g>
<g
   id="g40">
</g>
</svg>