<?xml version="1.0" encoding="UTF-8" standalone="no"?>
<svg
   xmlns:dc="http://purl.org/dc/elements/1.1/"
   xmlns:cc="http://creativecommons.org/ns#"
   xmlns:rdf="http://www.w3.org/1999/02/22-rdf-syntax-ns#"
   xmlns:svg="http://www.w3.org/2000/svg"
   xmlns="http://www.w3.org/2000/svg"
   xmlns:sodipodi="http://sodipodi.sourceforge.net/DTD/sodipodi-0.dtd"
   xmlns:inkscape="http://www.inkscape.org/namespaces/inkscape"
   version="1.1"
   viewBox="0 0 231.087 231.087"
   enable-background="new 0 0 231.087 231.087"
   id="svg18"
   sodipodi:docname="task-svgrepo-com (1).svg"
   inkscape:version="0.92.5 (2060ec1f9f, 2020-04-08)"
   inkscape:export-filename="/home/john/WWW/dolibarr/htdocs/custom/scrumproject/img/object_scrumuserstory.png"
   inkscape:export-xdpi="26.570673"
   inkscape:export-ydpi="26.570673">
  <metadata
     id="metadata24">
    <rdf:RDF>
      <cc:Work
         rdf:about="">
        <dc:format>image/svg+xml</dc:format>
        <dc:type
           rdf:resource="http://purl.org/dc/dcmitype/StillImage" />
      </cc:Work>
    </rdf:RDF>
  </metadata>
  <defs
     id="defs22" />
  <sodipodi:namedview
     pagecolor="#505050"
     bordercolor="#ffffff"
     borderopacity="1"
     objecttolerance="10"
     gridtolerance="10"
     guidetolerance="10"
     inkscape:pageopacity="0"
     inkscape:pageshadow="2"
     inkscape:window-width="1920"
     inkscape:window-height="1011"
     id="namedview20"
     showgrid="false"
     inkscape:zoom="1.0212604"
     inkscape:cx="115.5435"
     inkscape:cy="115.5435"
     inkscape:window-x="1920"
     inkscape:window-y="0"
     inkscape:window-maximized="1"
     inkscape:current-layer="svg18" />
  <path
     inkscape:connector-curvature="0"
     id="path2"
     d="m 230.042,142.627 c -1.871,-2.744 -5.612,-3.452 -8.355,-1.581 l -65.513,44.667 -14.55,-19.473 c -1.526,-2.036 -4.241,-2.977 -6.788,-2.129 -3.185,1.06 -4.908,4.501 -3.848,7.686 l 11.908,35.785 c 0.45,1.33 1.184,2.645 2.18,3.757 3.94,4.401 10.702,4.776 15.104,0.836 l 0.777,-0.695 68.129,-60.985 c 2.216,-1.981 2.676,-5.346 0.956,-7.868 z"
     style="fill:#cb4f24;fill-opacity:1" />
  <path
     inkscape:connector-curvature="0"
     id="path4"
     d="M 120.211,190.676 H 12 V 28.186 h 158.43 v 124.823 c 0,3.313 2.687,6 6,6 3.313,0 6,-2.687 6,-6 V 22.186 c 0,-3.313 -2.687,-6 -6,-6 H 6 c -3.313,0 -6,2.687 -6,6 v 174.49 c 0,3.313 2.687,6 6,6 h 114.211 c 3.313,0 6,-2.687 6,-6 0,-3.314 -2.687,-6 -6,-6 z"
     style="fill:#00384e;fill-opacity:1" />
  <path
     inkscape:connector-curvature="0"
     id="path6"
     d="M 139.694,53.855 H 42.735 c -3.313,0 -6,2.687 -6,6 0,3.313 2.687,6 6,6 h 96.959 c 3.313,0 6,-2.687 6,-6 0,-3.313 -2.686,-6 -6,-6 z"
     style="fill:#00384e;fill-opacity:1" />
  <path
     inkscape:connector-curvature="0"
     id="path8"
     d="M 139.694,79.79 H 42.735 c -3.313,0 -6,2.687 -6,6 0,3.313 2.687,6 6,6 h 96.959 c 3.313,0 6,-2.687 6,-6 0,-3.313 -2.686,-6 -6,-6 z"
     style="fill:#00384e;fill-opacity:1" />
  <path
     inkscape:connector-curvature="0"
     id="path10"
     d="M 139.694,105.725 H 42.735 c -3.313,0 -6,2.687 -6,6 0,3.313 2.687,6 6,6 h 96.959 c 3.313,0 6,-2.687 6,-6 0,-3.313 -2.686,-6 -6,-6 z"
     style="fill:#00384e;fill-opacity:1" />
  <path
     inkscape:connector-curvature="0"
     id="path12"
     d="m 145.694,137.659 c 0,-3.313 -2.687,-6 -6,-6 H 42.735 c -3.313,0 -6,2.687 -6,6 0,3.313 2.687,6 6,6 h 96.959 c 3.314,0 6,-2.686 6,-6 z"
     style="fill:#00384e;fill-opacity:1" />
  <path
     inkscape:connector-curvature="0"
     id="path14"
     d="m 42.735,156.329 c -3.313,0 -6,2.687 -6,6 0,3.313 2.687,6 6,6 h 48.479 c 3.313,0 6,-2.687 6,-6 0,-3.313 -2.687,-6 -6,-6 z"
     style="fill:#00384e;fill-opacity:1" />
</svg>
