<?xml version="1.0" encoding="UTF-8" standalone="no"?>
<svg
   xmlns:dc="http://purl.org/dc/elements/1.1/"
   xmlns:cc="http://creativecommons.org/ns#"
   xmlns:rdf="http://www.w3.org/1999/02/22-rdf-syntax-ns#"
   xmlns:svg="http://www.w3.org/2000/svg"
   xmlns="http://www.w3.org/2000/svg"
   xmlns:sodipodi="http://sodipodi.sourceforge.net/DTD/sodipodi-0.dtd"
   xmlns:inkscape="http://www.inkscape.org/namespaces/inkscape"
   width="512px"
   height="512px"
   viewBox="0 0 512 512"
   version="1.1"
   id="svg6"
   sodipodi:docname="task.svg"
   inkscape:version="0.92.5 (2060ec1f9f, 2020-04-08)"
   inkscape:export-filename="/home/john/WWW/dolibarr/htdocs/custom/scrumproject/img/object_scrumtask.png"
   inkscape:export-xdpi="12.620689"
   inkscape:export-ydpi="12.620689">
  <metadata
     id="metadata12">
    <rdf:RDF>
      <cc:Work
         rdf:about="">
        <dc:format>image/svg+xml</dc:format>
        <dc:type
           rdf:resource="http://purl.org/dc/dcmitype/StillImage" />
      </cc:Work>
    </rdf:RDF>
  </metadata>
  <defs
     id="defs10" />
  <sodipodi:namedview
     pagecolor="#505050"
     bordercolor="#ffffff"
     borderopacity="1"
     objecttolerance="10"
     gridtolerance="10"
     guidetolerance="10"
     inkscape:pageopacity="0"
     inkscape:pageshadow="2"
     inkscape:window-width="1920"
     inkscape:window-height="1011"
     id="namedview8"
     showgrid="false"
     inkscape:zoom="0.4609375"
     inkscape:cx="256"
     inkscape:cy="256"
     inkscape:window-x="1920"
     inkscape:window-y="0"
     inkscape:window-maximized="1"
     inkscape:current-layer="svg6" />
  <path
     fill="var(--ci-primary-color, currentColor)"
     d="M222.085,235.644l-62.01-62.01L81.8,251.905l62.009,62.01-.04.04,66.958,66.957,11.354,11.275.04.039,66.957-66.957,11.273-11.354L502.628,111.644,424.356,33.373Zm44.33,66.958-11.274,11.353h0l-33.057,33.056-.04-.039-33.017-33.017.04-.04-62.009-62.01,33.016-33.016,62.01,62.009L424.356,78.627l33.017,33.017Z"
     class="ci-primary"
     id="path2"
     style="fill:#cb4f24;fill-opacity:1" />
  <polygon
     fill="var(--ci-primary-color, currentColor)"
     points="448 464 48 464 48 64 348.22 64 380.22 32 16 32 16 496 480 496 480 179.095 448 211.095 448 464"
     class="ci-primary"
     id="polygon4"
     style="fill:#00384e;fill-opacity:1" />
</svg>
