<?xml version="1.0" encoding="UTF-8" standalone="no"?>
<svg
   xmlns:dc="http://purl.org/dc/elements/1.1/"
   xmlns:cc="http://creativecommons.org/ns#"
   xmlns:rdf="http://www.w3.org/1999/02/22-rdf-syntax-ns#"
   xmlns:svg="http://www.w3.org/2000/svg"
   xmlns="http://www.w3.org/2000/svg"
   xmlns:sodipodi="http://sodipodi.sourceforge.net/DTD/sodipodi-0.dtd"
   xmlns:inkscape="http://www.inkscape.org/namespaces/inkscape"
   width="110"
   height="110"
   version="1.1"
   id="svg6"
   sodipodi:docname="scrum project lightbulb.svg"
   inkscape:version="0.92.5 (2060ec1f9f, 2020-04-08)"
   style="fill:#00384e">
  <metadata
     id="metadata12">
    <rdf:RDF>
      <cc:Work
         rdf:about="">
        <dc:format>image/svg+xml</dc:format>
        <dc:type
           rdf:resource="http://purl.org/dc/dcmitype/StillImage" />
        <dc:title></dc:title>
      </cc:Work>
    </rdf:RDF>
  </metadata>
  <defs
     id="defs10" />
  <sodipodi:namedview
     pagecolor="#505050"
     bordercolor="#ffffff"
     borderopacity="1"
     objecttolerance="10"
     gridtolerance="10"
     guidetolerance="10"
     inkscape:pageopacity="0"
     inkscape:pageshadow="2"
     inkscape:window-width="1920"
     inkscape:window-height="1043"
     id="namedview8"
     showgrid="false"
     inkscape:zoom="5.2149125"
     inkscape:cx="66.525115"
     inkscape:cy="68.389433"
     inkscape:window-x="0"
     inkscape:window-y="0"
     inkscape:window-maximized="1"
     inkscape:current-layer="svg6"
     fit-margin-top="0"
     fit-margin-left="0"
     fit-margin-right="0"
     fit-margin-bottom="0" />
  <path
     d="m 39.80036,87.806879 h 31.875 v 6.342 h -31.875 z m 20.719,19.125011 h -9.563 c -3.521,0 -6.375,-2.854 -6.375,-6.37501 v -1.594004 h 22.313 v 1.594004 c 0,3.52101 -2.854,6.37501 -6.375,6.37501 z"
     id="path2"
     inkscape:connector-curvature="0"
     sodipodi:nodetypes="cccccsssccss" />
  <path
     d="m 54.90536,4.0408792 c -18.278,0.43 -32.955,15.7349998 -32.657,34.0149998 0.141,8.642 3.557,16.488 9.062,22.35 5.355,5.703 8.465,13.15 8.465,20.974 v 0.713 h 13.547 v -27.859 h -6.375 v -4.781 h 17.531 v 4.781 h -6.375 v 27.858 h 13.547 v -0.714 c 0,-7.81 3.086,-15.257 8.439,-20.944 5.638,-5.99 9.092,-14.058 9.092,-22.933 0,-18.754 -15.423,-33.9039998 -34.276,-33.4599998 z"
     id="path4"
     inkscape:connector-curvature="0"
     style="fill:#cb4f24" />
</svg>
